<?xml version="1.0" standalone="no"?>
<!DOCTYPE svg PUBLIC "-//W3C//DTD SVG 20010904//EN"
 "http://www.w3.org/TR/2001/REC-SVG-20010904/DTD/svg10.dtd">
<svg version="1.0" xmlns="http://www.w3.org/2000/svg"
 width="200.000000pt" height="200.000000pt" viewBox="0 0 200.000000 200.000000"
 preserveAspectRatio="xMidYMid meet">
<metadata>
Created by potrace 1.14, written by Peter Selinger 2001-2017
</metadata>
<g transform="translate(0.000000,200.000000) scale(0.100000,-0.100000)"
fill="#000000" stroke="none">
<path d="M962 1598 c-13 -7 -54 -64 -97 -137 -40 -69 -82 -139 -92 -156 -13
-21 -31 -33 -68 -43 -85 -22 -296 -115 -326 -143 -77 -72 -42 -132 177 -305
l39 -31 -4 -114 c-10 -249 -8 -276 17 -301 17 -18 34 -23 70 -23 39 1 61 10
132 54 47 29 115 68 152 87 l66 33 165 -79 c91 -44 174 -80 185 -80 31 0 67
35 80 78 9 29 9 69 2 153 -6 63 -13 149 -17 192 -7 88 -14 76 94 165 63 52
119 152 102 183 -14 27 -63 50 -237 109 -124 43 -157 58 -170 79 -19 32 -94
145 -145 220 -47 70 -74 83 -125 59z m64 -22 c17 -12 125 -167 188 -268 18
-31 51 -47 171 -84 104 -33 206 -74 227 -91 14 -12 14 -19 5 -41 -26 -59 -54
-93 -124 -153 l-73 -62 0 -61 c0 -34 7 -117 14 -186 19 -165 7 -229 -44 -245
-12 -4 -80 23 -186 74 -91 45 -174 81 -183 80 -16 0 -47 -17 -231 -123 -112
-65 -134 -67 -171 -16 -17 23 -18 36 -8 165 13 171 6 240 -24 257 -35 18 -161
123 -195 163 -54 61 -39 105 50 148 100 47 193 85 264 106 64 19 72 25 95 63
13 24 27 51 31 60 19 46 112 190 135 208 31 24 33 24 59 6z"/>
<path d="M1170 1040 c0 -25 4 -31 18 -28 11 2 17 12 17 28 0 16 -6 26 -17 28
-14 3 -18 -3 -18 -28z m17 -2 c-3 -8 -6 -5 -6 6 -1 11 2 17 5 13 3 -3 4 -12 1
-19z"/>
<path d="M825 1030 c5 -16 4 -20 -5 -15 -8 5 -11 1 -8 -11 2 -11 10 -19 18
-19 19 0 20 57 1 63 -10 3 -11 -2 -6 -18z"/>
<path d="M1150 939 c-36 -5 -129 -10 -208 -13 -155 -4 -186 -14 -198 -61 -8
-32 15 -68 65 -99 56 -36 115 -49 216 -49 138 0 232 40 272 116 27 52 -15 122
-70 116 -7 -1 -41 -5 -77 -10z m-22 -194 c-2 -1 -20 -5 -41 -8 -45 -7 -44 -8
-50 95 l-4 77 36 3 36 3 13 -84 c6 -46 11 -85 10 -86z m76 123 c10 -85 8 -94
-20 -107 -15 -6 -29 -10 -32 -7 -7 8 -21 87 -22 129 0 35 1 37 34 37 33 0 33
-1 40 -52z m77 26 c12 -33 6 -54 -25 -83 l-24 -23 -7 48 c-4 27 -9 57 -12 67
-3 13 2 17 27 17 24 0 33 -6 41 -26z m-452 -49 c-1 -36 -6 -65 -11 -65 -19 0
-58 50 -58 74 0 23 36 54 63 56 4 0 7 -29 6 -65z m95 43 c3 -13 6 -51 6 -86
l0 -62 -27 6 c-51 12 -58 20 -57 61 3 107 1 103 38 103 26 0 35 -5 40 -22z
m90 -5 c3 -16 6 -55 8 -88 l3 -60 -38 0 -38 0 -3 82 c-2 45 -1 84 2 87 3 4 18
6 33 6 22 0 28 -5 33 -27z"/>
</g>
</svg>
